<svg width="24" height="24" viewBox="0 0 24 24" fill="none" xmlns="http://www.w3.org/2000/svg">
<path d="M12 23C5.93335 23 1 18.0667 1 12C1 5.9334 5.93335 1 12 1C18.0666 1 23 5.9334 23 12C23 18.0667 18.0666 23 12 23" fill="#E6E6E6"/>
<path d="M12 23C5.93335 23 1 18.0667 1 12C1 5.9334 5.93335 1 12 1C18.0666 1 23 5.9334 23 12C23 18.0667 18.0666 23 12 23" stroke="#939593"/>
<circle cx="11.9999" cy="12" r="5.5" fill="black" stroke="#939593"/>
<circle cx="12" cy="12" r="6.75" stroke="#545454" stroke-width="3.5"/>
</svg>
